<svg xmlns="http://www.w3.org/2000/svg" viewBox="0 0 1200 675" role="img" aria-labelledby="title desc">
  <title id="title">After-Dark Storefronts</title>
  <desc id="desc">An empty storefront transformed into a glowing evening neighborhood gallery.</desc>
  <defs>
    <linearGradient id="night" x1="0" y1="0" x2="1" y2="1"><stop stop-color="#151c28"/><stop offset="1" stop-color="#33221f"/></linearGradient>
    <linearGradient id="glow" x1="0" y1="0" x2="0" y2="1"><stop stop-color="#ffd4a4"/><stop offset="1" stop-color="#f45d22"/></linearGradient>
    <radialGradient id="lamp"><stop stop-color="#fff3d7"/><stop offset=".5" stop-color="#ff9a50" stop-opacity=".5"/><stop offset="1" stop-color="#f45d22" stop-opacity="0"/></radialGradient>
    <filter id="shadow"><feDropShadow dx="0" dy="14" stdDeviation="18" flood-color="#080b12" flood-opacity=".48"/></filter>
    <filter id="soft"><feGaussianBlur stdDeviation="16"/></filter>
    <pattern id="grain" width="27" height="27" patternUnits="userSpaceOnUse"><circle cx="4" cy="5" r="1" fill="#fff" opacity=".06"/><circle cx="18" cy="20" r=".8" fill="#f45d22" opacity=".13"/></pattern>
  </defs>
  <rect width="1200" height="675" fill="url(#night)"/>
  <circle cx="1034" cy="98" r="44" fill="#fff0d0"/><circle cx="1017" cy="84" r="45" fill="#202330"/>
  <g fill="#101721" opacity=".8"><path d="M0 250h141V92h84v158h88V150h127v100h104V61h103v189h121V129h79v121h112V78h145v373H0Z"/></g>
  <path d="M0 482h1200v193H0Z" fill="#151419"/>
  <g filter="url(#shadow)">
    <rect x="95" y="138" width="1010" height="420" rx="12" fill="#2c2321" stroke="#ef7742" stroke-width="4"/>
    <rect x="119" y="164" width="962" height="66" fill="#1b1718"/>
    <circle cx="191" cy="197" r="9" fill="#f45d22"/><circle cx="221" cy="197" r="9" fill="#ffac67"/><circle cx="251" cy="197" r="9" fill="#ffd6a5"/>
    <rect x="126" y="246" width="280" height="282" fill="url(#glow)"/>
    <rect x="428" y="246" width="346" height="282" fill="#ffe3c0"/>
    <rect x="796" y="246" width="278" height="282" fill="url(#glow)"/>
    <g stroke="#2f201b" stroke-width="11"><path d="M416 241v292M785 241v292"/><path d="M111 535h978"/></g>
  </g>
  <g>
    <rect x="165" y="285" width="197" height="155" rx="5" fill="#fff8ea" stroke="#39251e" stroke-width="8"/><circle cx="265" cy="359" r="54" fill="#f45d22"/><path d="M209 410c37-76 94-75 119 0" fill="#293f3b"/>
    <rect x="478" y="284" width="119" height="177" rx="4" fill="#f45d22" stroke="#39251e" stroke-width="8"/><path d="M498 427l38-106 40 106Z" fill="#ffdbac"/>
    <rect x="624" y="284" width="105" height="177" rx="4" fill="#243a3a" stroke="#39251e" stroke-width="8"/><circle cx="677" cy="338" r="28" fill="#ffad6c"/><path d="M646 431c7-58 18-75 33-75s29 18 34 75Z" fill="#fff5e8"/>
    <rect x="842" y="287" width="187" height="148" rx="5" fill="#281e24" stroke="#39251e" stroke-width="8"/><path d="M865 405c38-107 80-107 137 0" fill="none" stroke="#ff8d45" stroke-width="18"/><circle cx="939" cy="347" r="26" fill="#ffe0b6"/>
  </g>
  <g filter="url(#soft)" opacity=".45"><circle cx="253" cy="378" r="142" fill="url(#lamp)"/><circle cx="932" cy="376" r="154" fill="url(#lamp)"/></g>
  <g>
    <circle cx="303" cy="484" r="29" fill="#9d573b"/><path d="M256 633c5-85 20-120 52-120 34 0 50 38 55 120Z" fill="#253c3a"/><path d="M285 534c-27 31-47 69-58 102" fill="none" stroke="#9d573b" stroke-width="16" stroke-linecap="round"/>
    <circle cx="603" cy="486" r="27" fill="#dc966d"/><path d="M558 633c7-81 20-114 49-114 33 0 48 35 53 114Z" fill="#f45d22"/><path d="M586 535c-31 29-60 48-92 59" fill="none" stroke="#dc966d" stroke-width="15" stroke-linecap="round"/>
    <circle cx="893" cy="481" r="30" fill="#74402f"/><path d="M844 633c8-87 21-121 53-121 35 0 51 37 57 121Z" fill="#f7e0c5"/><path d="M876 531c-27 29-46 61-57 96" fill="none" stroke="#74402f" stroke-width="16" stroke-linecap="round"/>
  </g>
  <path d="M31 647c205-35 385-6 574 3 205 10 390-31 577-7" fill="none" stroke="#f45d22" stroke-width="5" opacity=".5"/>
  <rect width="1200" height="675" fill="url(#grain)"/>
</svg>
