<svg xmlns="http://www.w3.org/2000/svg" viewBox="0 0 1200 675" role="img" aria-labelledby="title desc">
  <title id="title">Block-Ready Kits</title>
  <desc id="desc">Neighbors organize labeled emergency supply kits beside a shared neighborhood response map.</desc>
  <defs>
    <linearGradient id="wall" x1="0" y1="0" x2="1" y2="1"><stop stop-color="#fff8ed"/><stop offset="1" stop-color="#ffd8b2"/></linearGradient>
    <linearGradient id="orange" x1="0" y1="0" x2="1" y2="1"><stop stop-color="#ff984e"/><stop offset="1" stop-color="#ed4e19"/></linearGradient>
    <filter id="shadow"><feDropShadow dx="0" dy="15" stdDeviation="17" flood-color="#382018" flood-opacity=".25"/></filter>
    <pattern id="dots" width="26" height="26" patternUnits="userSpaceOnUse"><circle cx="4" cy="4" r="1" fill="#7a3e2c" opacity=".11"/></pattern>
  </defs>
  <rect width="1200" height="675" fill="url(#wall)"/>
  <path d="M0 500c225-45 382 24 602-13 210-35 400-17 598 37v151H0Z" fill="#deb486"/>
  <g filter="url(#shadow)">
    <rect x="82" y="78" width="585" height="453" rx="28" fill="#3a2922"/>
    <g fill="#fff7ec"><rect x="116" y="113" width="517" height="18" rx="9"/><rect x="116" y="300" width="517" height="18" rx="9"/><rect x="116" y="487" width="517" height="18" rx="9"/></g>
    <g>
      <rect x="137" y="151" width="142" height="117" rx="16" fill="url(#orange)"/><rect x="303" y="151" width="142" height="117" rx="16" fill="#ffbc7d"/><rect x="469" y="151" width="142" height="117" rx="16" fill="url(#orange)"/>
      <rect x="137" y="338" width="142" height="117" rx="16" fill="#ffbc7d"/><rect x="303" y="338" width="142" height="117" rx="16" fill="url(#orange)"/><rect x="469" y="338" width="142" height="117" rx="16" fill="#ffbc7d"/>
      <g fill="#fff8ed"><path d="M181 196h54v30h-54z"/><path d="M347 196h54v30h-54z"/><path d="M513 196h54v30h-54z"/><path d="M181 383h54v30h-54z"/><path d="M347 383h54v30h-54z"/><path d="M513 383h54v30h-54z"/></g>
      <g stroke="#3a2922" stroke-width="7" stroke-linecap="round"><path d="M192 211h32"/><path d="M358 211h32"/><path d="M524 211h32"/><path d="M192 398h32"/><path d="M358 398h32"/><path d="M524 398h32"/></g>
    </g>
  </g>
  <g filter="url(#shadow)">
    <rect x="728" y="91" width="386" height="319" rx="26" fill="#fffdf8" stroke="#d8aa82" stroke-width="5"/>
    <path d="M780 154c59 12 82-28 134-4 55 25 89-3 148 14M775 232c52-18 91 20 137 3 58-21 96 9 151-6M782 316c61 22 90-14 145 6 50 18 83-9 133 4" fill="none" stroke="#e4b88d" stroke-width="20" stroke-linecap="round"/>
    <g fill="#f45d22"><circle cx="833" cy="179" r="16"/><circle cx="981" cy="257" r="16"/><circle cx="874" cy="333" r="16"/></g>
    <path d="M833 179l148 78-107 76" fill="none" stroke="#29423e" stroke-width="8" stroke-dasharray="14 12" stroke-linecap="round"/>
    <rect x="773" y="365" width="292" height="22" rx="11" fill="#3a2922" opacity=".72"/>
  </g>
  <g>
    <circle cx="760" cy="463" r="38" fill="#8c4b34"/><path d="M704 606c7-86 25-117 61-117 39 0 58 35 64 117Z" fill="#29423e"/><path d="M773 515c46-24 86-53 119-86" fill="none" stroke="#8c4b34" stroke-width="18" stroke-linecap="round"/>
    <circle cx="1005" cy="462" r="35" fill="#d98c62"/><path d="M955 604c7-82 23-113 55-113 36 0 53 35 58 113Z" fill="#f45d22"/><path d="M988 513c-38-22-72-52-100-88" fill="none" stroke="#d98c62" stroke-width="17" stroke-linecap="round"/>
  </g>
  <rect x="821" y="533" width="132" height="82" rx="14" fill="#fff7ec" stroke="#3a2922" stroke-width="5"/><path d="M848 558h78M848 584h52" stroke="#f45d22" stroke-width="9" stroke-linecap="round"/>
  <rect width="1200" height="675" fill="url(#dots)"/>
</svg>
